<?xml version="1.0" encoding="UTF-8"?>
<!DOCTYPE svg PUBLIC "-//W3C//DTD SVG 1.1//EN" "http://www.w3.org/Graphics/SVG/1.1/DTD/svg11.dtd">
<svg xmlns="http://www.w3.org/2000/svg" version="1.1" width="512px" height="512px" style="shape-rendering:geometricPrecision; text-rendering:geometricPrecision; image-rendering:optimizeQuality; fill-rule:evenodd; clip-rule:evenodd" xmlns:xlink="http://www.w3.org/1999/xlink">
<g><path style="opacity:0.992" fill="#09105e" d="M 511.5,258.5 C 511.5,295.833 511.5,333.167 511.5,370.5C 507.279,382.55 498.946,390.384 486.5,394C 473.504,394.5 460.504,394.667 447.5,394.5C 447.667,408.504 447.5,422.504 447,436.5C 441.5,459.333 427.333,473.5 404.5,479C 305.167,479.667 205.833,479.667 106.5,479C 83.64,473.473 69.4733,459.307 64,436.5C 63.5001,422.504 63.3334,408.504 63.5,394.5C 50.4957,394.667 37.4957,394.5 24.5,394C 12.0544,390.384 3.72111,382.55 -0.5,370.5C -0.5,332.833 -0.5,295.167 -0.5,257.5C 3.96206,244.543 12.9621,236.71 26.5,234C 38.8288,233.5 51.1622,233.333 63.5,233.5C 63.3334,219.496 63.5001,205.496 64,191.5C 69.7316,167.768 84.5649,153.601 108.5,149C 153.832,148.5 199.165,148.333 244.5,148.5C 244.667,134.163 244.5,119.829 244,105.5C 220.971,96.787 210.638,80.1203 213,55.5C 220.136,30.0027 236.969,18.5027 263.5,21C 288.997,28.1361 300.497,44.9694 298,71.5C 294.08,88.6704 283.746,100.004 267,105.5C 266.5,119.829 266.333,134.163 266.5,148.5C 311.835,148.333 357.168,148.5 402.5,149C 426.435,153.601 441.268,167.768 447,191.5C 447.5,205.496 447.667,219.496 447.5,233.5C 459.838,233.333 472.171,233.5 484.5,234C 498.475,236.813 507.475,244.98 511.5,258.5 Z"/></g>
<g><path style="opacity:1" fill="#fd3a64" d="M 273.5,74.5 C 259.57,74.293 250.404,67.6263 246,54.5C 245.253,51.0764 245.42,47.7431 246.5,44.5C 260.209,39.936 270.042,44.2694 276,57.5C 277.108,63.5042 276.275,69.1709 273.5,74.5 Z"/></g>
<g><path style="opacity:1" fill="#e02e55" d="M 246.5,44.5 C 245.42,47.7431 245.253,51.0764 246,54.5C 250.404,67.6263 259.57,74.293 273.5,74.5C 267.714,82.8254 259.714,85.9921 249.5,84C 237.794,79.0982 232.961,70.2649 235,57.5C 237.01,51.4307 240.844,47.0974 246.5,44.5 Z"/></g>
<g><path style="opacity:1" fill="#ccddf0" d="M 116.5,170.5 C 116.333,250.167 116.5,329.834 117,409.5C 119.859,417.693 125.359,423.193 133.5,426C 230.833,426.5 328.166,426.667 425.5,426.5C 425.5,349.833 425.5,273.167 425.5,196.5C 426.666,273.999 426.832,351.666 426,429.5C 423.262,445.238 414.095,454.738 398.5,458C 302.833,458.667 207.167,458.667 111.5,458C 96.9102,454.41 88.0769,445.243 85,430.5C 84.3333,352.5 84.3333,274.5 85,196.5C 89.2358,180.145 99.7358,171.478 116.5,170.5 Z"/></g>
<g><path style="opacity:1" fill="#eef2f8" d="M 116.5,170.5 C 211.167,170.333 305.834,170.5 400.5,171C 414.407,174.073 422.74,182.573 425.5,196.5C 425.5,273.167 425.5,349.833 425.5,426.5C 328.166,426.667 230.833,426.5 133.5,426C 125.359,423.193 119.859,417.693 117,409.5C 116.5,329.834 116.333,250.167 116.5,170.5 Z"/></g>
<g><path style="opacity:1" fill="#0c125f" d="M 183.5,234.5 C 203.605,232.138 216.772,240.472 223,259.5C 225.022,277.793 217.522,290.293 200.5,297C 181.932,300.632 168.765,293.799 161,276.5C 156.72,256.054 164.22,242.054 183.5,234.5 Z"/></g>
<g><path style="opacity:1" fill="#0c125f" d="M 311.5,234.5 C 331.605,232.138 344.772,240.472 351,259.5C 353.022,277.793 345.522,290.293 328.5,297C 309.932,300.632 296.765,293.799 289,276.5C 284.72,256.054 292.22,242.054 311.5,234.5 Z"/></g>
<g><path style="opacity:1" fill="#8b93ae" d="M 63.5,340.5 C 50.4957,340.667 37.4957,340.5 24.5,340C 23.5838,339.626 22.7504,339.126 22,338.5C 21.5,313.502 21.3334,288.502 21.5,263.5C 22.1828,259.98 24.1828,257.48 27.5,256C 39.4954,255.5 51.4954,255.333 63.5,255.5C 63.5,283.833 63.5,312.167 63.5,340.5 Z"/></g>
<g><path style="opacity:1" fill="#8b93ae" d="M 489.5,263.5 C 489.667,288.502 489.5,313.502 489,338.5C 487.601,339.227 486.101,339.727 484.5,340C 472.171,340.5 459.838,340.667 447.5,340.5C 447.5,312.167 447.5,283.833 447.5,255.5C 459.171,255.333 470.838,255.5 482.5,256C 486.418,257.083 488.752,259.583 489.5,263.5 Z"/></g>
<g><path style="opacity:1" fill="#aaafbf" d="M 187.5,255.5 C 200.051,255.314 204.218,260.981 200,272.5C 195.8,276.714 190.966,277.548 185.5,275C 178.524,267.713 179.191,261.213 187.5,255.5 Z"/></g>
<g><path style="opacity:1" fill="#aaafbf" d="M 315.5,255.5 C 328.051,255.314 332.218,260.981 328,272.5C 323.8,276.714 318.966,277.548 313.5,275C 306.524,267.713 307.191,261.213 315.5,255.5 Z"/></g>
<g><path style="opacity:1" fill="#6d7592" d="M 21.5,263.5 C 21.3334,288.502 21.5,313.502 22,338.5C 22.7504,339.126 23.5838,339.626 24.5,340C 37.4957,340.5 50.4957,340.667 63.5,340.5C 63.5,351.167 63.5,361.833 63.5,372.5C 51.4954,372.667 39.4954,372.5 27.5,372C 24.2716,370.437 22.1049,367.937 21,364.5C 20.1691,330.664 20.3358,296.998 21.5,263.5 Z"/></g>
<g><path style="opacity:1" fill="#6d7592" d="M 489.5,263.5 C 490.664,296.998 490.831,330.664 490,364.5C 488.895,367.937 486.728,370.437 483.5,372C 471.505,372.5 459.505,372.667 447.5,372.5C 447.5,361.833 447.5,351.167 447.5,340.5C 459.838,340.667 472.171,340.5 484.5,340C 486.101,339.727 487.601,339.227 489,338.5C 489.5,313.502 489.667,288.502 489.5,263.5 Z"/></g>
<g><path style="opacity:1" fill="#0c125f" d="M 197.5,360.5 C 204.701,360.26 211.368,362.093 217.5,366C 238.103,373.058 259.103,374.391 280.5,370C 289.913,366.918 299.246,363.751 308.5,360.5C 317.06,361.266 320.56,365.933 319,374.5C 317.954,376.09 316.787,377.59 315.5,379C 290.703,391.895 264.369,396.562 236.5,393C 222.092,390.53 208.425,385.864 195.5,379C 189.836,372.151 190.502,365.984 197.5,360.5 Z"/></g>
</svg>
